<svg width="60" height="60" viewBox="0 0 60 60" fill="none" xmlns="http://www.w3.org/2000/svg">
<circle cx="30" cy="30" r="30" fill="#4D4D4D" fill-opacity="0.5"/>
<path d="M34.2815 30.2857C34.2815 32.6462 32.3563 34.5714 29.9958 34.5714C27.6353 34.5714 25.7101 32.6462 25.7101 30.2857C25.7101 27.9252 27.6353 26 29.9958 26C32.3563 26 34.2815 27.9252 34.2815 30.2857ZM36.5918 30.2857C36.5918 26.6362 33.6454 23.6897 29.9958 23.6897C26.3463 23.6897 23.3998 26.6362 23.3998 30.2857C23.3998 33.9353 26.3463 36.8817 29.9958 36.8817C33.6454 36.8817 36.5918 33.9353 36.5918 30.2857ZM38.3998 23.4219C38.3998 22.5681 37.7135 21.8817 36.8597 21.8817C36.0059 21.8817 35.3195 22.5681 35.3195 23.4219C35.3195 24.2757 36.0059 24.9621 36.8597 24.9621C37.7135 24.9621 38.3998 24.2757 38.3998 23.4219ZM29.9958 19.7388C31.8708 19.7388 35.8887 19.5882 37.5795 20.2578C38.1655 20.4922 38.6007 20.7768 39.0527 21.2288C39.5047 21.6808 39.7893 22.1161 40.0237 22.702C40.6934 24.3929 40.5427 28.4107 40.5427 30.2857C40.5427 32.1607 40.6934 36.1786 40.0237 37.8694C39.7893 38.4554 39.5047 38.8906 39.0527 39.3426C38.6007 39.7946 38.1655 40.0792 37.5795 40.3136C35.8887 40.9833 31.8708 40.8326 29.9958 40.8326C28.1208 40.8326 24.103 40.9833 22.4121 40.3136C21.8262 40.0792 21.3909 39.7946 20.9389 39.3426C20.4869 38.8906 20.2023 38.4554 19.9679 37.8694C19.2983 36.1786 19.4489 32.1607 19.4489 30.2857C19.4489 28.4107 19.2983 24.3929 19.9679 22.702C20.2023 22.1161 20.4869 21.6808 20.9389 21.2288C21.3909 20.7768 21.8262 20.4922 22.4121 20.2578C24.103 19.5882 28.1208 19.7388 29.9958 19.7388ZM42.853 30.2857C42.853 28.5112 42.8697 26.7533 42.7693 24.9788C42.6688 22.9196 42.2001 21.0949 40.6934 19.5882C39.1867 18.0815 37.3619 17.6127 35.3027 17.5123C33.5282 17.4118 31.7704 17.4286 29.9958 17.4286C28.2213 17.4286 26.4634 17.4118 24.6889 17.5123C22.6297 17.6127 20.805 18.0815 19.2983 19.5882C17.7916 21.0949 17.3228 22.9196 17.2224 24.9788C17.1219 26.7533 17.1387 28.5112 17.1387 30.2857C17.1387 32.0603 17.1219 33.8181 17.2224 35.5926C17.3228 37.6518 17.7916 39.4766 19.2983 40.9833C20.805 42.49 22.6297 42.9587 24.6889 43.0592C26.4634 43.1596 28.2213 43.1429 29.9958 43.1429C31.7704 43.1429 33.5282 43.1596 35.3027 43.0592C37.3619 42.9587 39.1867 42.49 40.6934 40.9833C42.2001 39.4766 42.6688 37.6518 42.7693 35.5926C42.8697 33.8181 42.853 32.0603 42.853 30.2857Z" fill="white"/>
</svg>
