<svg width="45" height="45" viewBox="0 0 45 45" fill="none" xmlns="http://www.w3.org/2000/svg">
<circle cx="22.5" cy="22.5" r="22.5" fill="black" fill-opacity="0.5"/>
<path d="M30.5686 27.8571C30.5686 27.4665 30.245 27.1429 29.8544 27.1429H14.1401C13.7494 27.1429 13.4258 27.4665 13.4258 27.8571V29.2857C13.4258 29.6763 13.7494 30 14.1401 30H29.8544C30.245 30 30.5686 29.6763 30.5686 29.2857V27.8571ZM30.5686 22.1429C30.5686 21.7522 30.245 21.4286 29.8544 21.4286H14.1401C13.7494 21.4286 13.4258 21.7522 13.4258 22.1429V23.5714C13.4258 23.9621 13.7494 24.2857 14.1401 24.2857H29.8544C30.245 24.2857 30.5686 23.9621 30.5686 23.5714V22.1429ZM30.5686 16.4286C30.5686 16.0379 30.245 15.7143 29.8544 15.7143H14.1401C13.7494 15.7143 13.4258 16.0379 13.4258 16.4286V17.8571C13.4258 18.2478 13.7494 18.5714 14.1401 18.5714H29.8544C30.245 18.5714 30.5686 18.2478 30.5686 17.8571V16.4286Z" fill="white"/>
</svg>
