<svg width="45" height="45" viewBox="0 0 45 45" fill="none" xmlns="http://www.w3.org/2000/svg">
<circle cx="22.5" cy="22.5" r="22.5" fill="black" fill-opacity="0.5"/>
<path d="M26.07 22.1429C26.07 24.8996 23.8267 27.1429 21.07 27.1429C18.3133 27.1429 16.07 24.8996 16.07 22.1429C16.07 19.3862 18.3133 17.1429 21.07 17.1429C23.8267 17.1429 26.07 19.3862 26.07 22.1429ZM31.7843 31.4286C31.7843 31.0491 31.6281 30.6808 31.3714 30.4241L27.5432 26.596C28.4473 25.2902 28.9272 23.7277 28.9272 22.1429C28.9272 17.8013 25.4116 14.2857 21.07 14.2857C16.7285 14.2857 13.2129 17.8013 13.2129 22.1429C13.2129 26.4844 16.7285 30 21.07 30C22.6549 30 24.2174 29.5201 25.5232 28.6161L29.3513 32.433C29.608 32.7009 29.9763 32.8571 30.3557 32.8571C31.137 32.8571 31.7843 32.2098 31.7843 31.4286Z" fill="white"/>
</svg>
