<svg width="60" height="60" viewBox="0 0 60 60" fill="none" xmlns="http://www.w3.org/2000/svg">
<circle cx="30" cy="30" r="30" fill="#4D4D4D" fill-opacity="0.5"/>
<path d="M41.8945 24.6562C43.0664 23.7773 44.1211 22.7227 44.9414 21.4922C43.8867 21.9609 42.6562 22.3125 41.4258 22.4297C42.7148 21.668 43.6523 20.4961 44.1211 19.0312C42.9492 19.7344 41.6016 20.2617 40.2539 20.5547C39.082 19.3242 37.5 18.6211 35.7422 18.6211C32.3438 18.6211 29.5898 21.375 29.5898 24.7734C29.5898 25.2422 29.6484 25.7109 29.7656 26.1797C24.668 25.8867 20.0977 23.4258 17.0508 19.7344C16.5234 20.6133 16.2305 21.668 16.2305 22.8398C16.2305 24.9492 17.2852 26.8242 18.9844 27.9375C17.9883 27.8789 16.9922 27.6445 16.1719 27.1758V27.2344C16.1719 30.2227 18.2812 32.6836 21.0938 33.2695C20.625 33.3867 20.0391 33.5039 19.5117 33.5039C19.1016 33.5039 18.75 33.4453 18.3398 33.3867C19.1016 35.8477 21.3867 37.6055 24.082 37.6641C21.9727 39.3047 19.3359 40.3008 16.4648 40.3008C15.9375 40.3008 15.4688 40.2422 15 40.1836C17.6953 41.9414 20.918 42.9375 24.4336 42.9375C35.7422 42.9375 41.8945 33.6211 41.8945 25.4766C41.8945 25.1836 41.8945 24.9492 41.8945 24.6562Z" fill="white"/>
</svg>
