<svg width="60" height="60" viewBox="0 0 60 60" fill="none" xmlns="http://www.w3.org/2000/svg">
<circle cx="30" cy="30" r="30" fill="#4D4D4D" fill-opacity="0.5"/>
<path d="M45.293 23.0742C44.9414 21.668 43.8281 20.5547 42.4805 20.2031C39.9609 19.5 30 19.5 30 19.5C30 19.5 19.9805 19.5 17.4609 20.2031C16.1133 20.5547 15 21.668 14.6484 23.0742C13.9453 25.5352 13.9453 30.8086 13.9453 30.8086C13.9453 30.8086 13.9453 36.0234 14.6484 38.543C15 39.9492 16.1133 41.0039 17.4609 41.3555C19.9805 42 30 42 30 42C30 42 39.9609 42 42.4805 41.3555C43.8281 41.0039 44.9414 39.9492 45.293 38.543C45.9961 36.0234 45.9961 30.8086 45.9961 30.8086C45.9961 30.8086 45.9961 25.5352 45.293 23.0742ZM26.7188 35.5547V26.0625L35.0391 30.8086L26.7188 35.5547Z" fill="white"/>
</svg>
